<mxfile host="app.diagrams.net" modified="2024-03-02T08:37:40.701Z" agent="Mozilla/5.0 (Windows NT 10.0; Win64; x64) AppleWebKit/537.36 (KHTML, like Gecko) Chrome/122.0.0.0 Safari/537.36" etag="DaAqv-hv9hDwLkXeA1Rb" version="24.0.0" type="device">
  <diagram name="Page-1" id="i700ezd7IRnNzf-KEXHy">
    <mxGraphModel dx="1050" dy="522" grid="1" gridSize="10" guides="1" tooltips="1" connect="1" arrows="1" fold="1" page="1" pageScale="1" pageWidth="850" pageHeight="1100" math="0" shadow="0">
      <root>
        <mxCell id="0" />
        <mxCell id="1" parent="0" />
        <mxCell id="EqNFciiGR3iNWJNoW9cR-11" value="" style="rounded=1;whiteSpace=wrap;html=1;" vertex="1" parent="1">
          <mxGeometry x="253" y="20" width="250" height="410" as="geometry" />
        </mxCell>
        <mxCell id="EqNFciiGR3iNWJNoW9cR-21" style="edgeStyle=orthogonalEdgeStyle;rounded=0;orthogonalLoop=1;jettySize=auto;html=1;exitX=1;exitY=0.5;exitDx=0;exitDy=0;" edge="1" parent="1" source="EqNFciiGR3iNWJNoW9cR-1">
          <mxGeometry relative="1" as="geometry">
            <mxPoint x="101" y="235" as="targetPoint" />
          </mxGeometry>
        </mxCell>
        <mxCell id="EqNFciiGR3iNWJNoW9cR-1" value="" style="shape=datastore;whiteSpace=wrap;html=1;" vertex="1" parent="1">
          <mxGeometry x="11" y="195" width="70" height="80" as="geometry" />
        </mxCell>
        <mxCell id="EqNFciiGR3iNWJNoW9cR-2" value="" style="shape=datastore;whiteSpace=wrap;html=1;" vertex="1" parent="1">
          <mxGeometry x="102" y="215" width="40" height="40" as="geometry" />
        </mxCell>
        <mxCell id="EqNFciiGR3iNWJNoW9cR-25" style="edgeStyle=orthogonalEdgeStyle;rounded=0;orthogonalLoop=1;jettySize=auto;html=1;exitX=1;exitY=0.5;exitDx=0;exitDy=0;entryX=0;entryY=0.5;entryDx=0;entryDy=0;" edge="1" parent="1" source="EqNFciiGR3iNWJNoW9cR-4" target="EqNFciiGR3iNWJNoW9cR-13">
          <mxGeometry relative="1" as="geometry">
            <Array as="points">
              <mxPoint x="273" y="235" />
              <mxPoint x="273" y="168" />
            </Array>
          </mxGeometry>
        </mxCell>
        <mxCell id="EqNFciiGR3iNWJNoW9cR-26" style="edgeStyle=orthogonalEdgeStyle;rounded=0;orthogonalLoop=1;jettySize=auto;html=1;exitX=1;exitY=0.5;exitDx=0;exitDy=0;entryX=0;entryY=0.5;entryDx=0;entryDy=0;" edge="1" parent="1" source="EqNFciiGR3iNWJNoW9cR-4" target="EqNFciiGR3iNWJNoW9cR-14">
          <mxGeometry relative="1" as="geometry">
            <Array as="points">
              <mxPoint x="273" y="235" />
              <mxPoint x="273" y="250" />
            </Array>
          </mxGeometry>
        </mxCell>
        <mxCell id="EqNFciiGR3iNWJNoW9cR-27" style="edgeStyle=orthogonalEdgeStyle;rounded=0;orthogonalLoop=1;jettySize=auto;html=1;exitX=1;exitY=0.5;exitDx=0;exitDy=0;entryX=0;entryY=0.5;entryDx=0;entryDy=0;" edge="1" parent="1" source="EqNFciiGR3iNWJNoW9cR-4" target="EqNFciiGR3iNWJNoW9cR-15">
          <mxGeometry relative="1" as="geometry">
            <Array as="points">
              <mxPoint x="273" y="235" />
              <mxPoint x="273" y="378" />
            </Array>
          </mxGeometry>
        </mxCell>
        <mxCell id="EqNFciiGR3iNWJNoW9cR-43" style="edgeStyle=orthogonalEdgeStyle;rounded=0;orthogonalLoop=1;jettySize=auto;html=1;entryX=0;entryY=0.7;entryDx=0;entryDy=0;" edge="1" parent="1">
          <mxGeometry relative="1" as="geometry">
            <mxPoint x="218" y="228.32999999999998" as="sourcePoint" />
            <mxPoint x="283" y="97.03000000000004" as="targetPoint" />
            <Array as="points">
              <mxPoint x="218" y="235" />
              <mxPoint x="273" y="235" />
              <mxPoint x="273" y="97" />
            </Array>
          </mxGeometry>
        </mxCell>
        <mxCell id="EqNFciiGR3iNWJNoW9cR-4" value="" style="shape=datastore;whiteSpace=wrap;html=1;" vertex="1" parent="1">
          <mxGeometry x="178" y="215" width="40" height="40" as="geometry" />
        </mxCell>
        <mxCell id="EqNFciiGR3iNWJNoW9cR-50" style="edgeStyle=orthogonalEdgeStyle;rounded=0;orthogonalLoop=1;jettySize=auto;html=1;exitX=1;exitY=0.5;exitDx=0;exitDy=0;entryX=0;entryY=0.5;entryDx=0;entryDy=0;" edge="1" parent="1" source="EqNFciiGR3iNWJNoW9cR-12" target="EqNFciiGR3iNWJNoW9cR-18">
          <mxGeometry relative="1" as="geometry" />
        </mxCell>
        <mxCell id="EqNFciiGR3iNWJNoW9cR-12" value="" style="shape=datastore;whiteSpace=wrap;html=1;" vertex="1" parent="1">
          <mxGeometry x="283" y="75.69999999999999" width="40" height="40" as="geometry" />
        </mxCell>
        <mxCell id="EqNFciiGR3iNWJNoW9cR-13" value="" style="shape=datastore;whiteSpace=wrap;html=1;" vertex="1" parent="1">
          <mxGeometry x="283" y="147.7" width="40" height="40" as="geometry" />
        </mxCell>
        <mxCell id="EqNFciiGR3iNWJNoW9cR-31" style="edgeStyle=orthogonalEdgeStyle;rounded=0;orthogonalLoop=1;jettySize=auto;html=1;exitX=1;exitY=0.5;exitDx=0;exitDy=0;entryX=0;entryY=0.5;entryDx=0;entryDy=0;" edge="1" parent="1" source="EqNFciiGR3iNWJNoW9cR-14">
          <mxGeometry relative="1" as="geometry">
            <mxPoint x="343" y="250" as="targetPoint" />
          </mxGeometry>
        </mxCell>
        <mxCell id="EqNFciiGR3iNWJNoW9cR-14" value="" style="shape=datastore;whiteSpace=wrap;html=1;" vertex="1" parent="1">
          <mxGeometry x="283" y="230" width="40" height="40" as="geometry" />
        </mxCell>
        <mxCell id="EqNFciiGR3iNWJNoW9cR-34" style="edgeStyle=orthogonalEdgeStyle;rounded=0;orthogonalLoop=1;jettySize=auto;html=1;exitX=1;exitY=0.5;exitDx=0;exitDy=0;entryX=0;entryY=0.5;entryDx=0;entryDy=0;" edge="1" parent="1" source="EqNFciiGR3iNWJNoW9cR-15">
          <mxGeometry relative="1" as="geometry">
            <mxPoint x="343" y="377.70000000000005" as="targetPoint" />
          </mxGeometry>
        </mxCell>
        <mxCell id="EqNFciiGR3iNWJNoW9cR-15" value="" style="shape=datastore;whiteSpace=wrap;html=1;" vertex="1" parent="1">
          <mxGeometry x="283" y="357.7" width="40" height="40" as="geometry" />
        </mxCell>
        <mxCell id="EqNFciiGR3iNWJNoW9cR-18" value="" style="shape=image;verticalLabelPosition=bottom;labelBackgroundColor=default;verticalAlign=top;imageAspect=0;image=https://www.jeremyjordan.me/content/images/2017/07/Screen-Shot-2017-07-26-at-1.44.58-PM.png;imageBorder=#44ff00;" vertex="1" parent="1">
          <mxGeometry x="342" y="63.7" width="130" height="60" as="geometry" />
        </mxCell>
        <mxCell id="EqNFciiGR3iNWJNoW9cR-33" style="edgeStyle=orthogonalEdgeStyle;rounded=0;orthogonalLoop=1;jettySize=auto;html=1;exitX=1;exitY=0.5;exitDx=0;exitDy=0;entryX=-0.046;entryY=0.536;entryDx=0;entryDy=0;entryPerimeter=0;" edge="1" parent="1" source="EqNFciiGR3iNWJNoW9cR-13">
          <mxGeometry relative="1" as="geometry">
            <mxPoint x="337.02" y="167.4144" as="targetPoint" />
          </mxGeometry>
        </mxCell>
        <mxCell id="EqNFciiGR3iNWJNoW9cR-36" value="" style="endArrow=none;dashed=1;html=1;dashPattern=1 3;strokeWidth=2;rounded=0;fontStyle=1;fontSize=14;" edge="1" parent="1">
          <mxGeometry width="50" height="50" relative="1" as="geometry">
            <mxPoint x="149" y="238" as="sourcePoint" />
            <mxPoint x="179" y="238" as="targetPoint" />
          </mxGeometry>
        </mxCell>
        <mxCell id="EqNFciiGR3iNWJNoW9cR-38" value="" style="endArrow=none;dashed=1;html=1;rounded=0;" edge="1" parent="1">
          <mxGeometry width="50" height="50" relative="1" as="geometry">
            <mxPoint x="302.5" y="340" as="sourcePoint" />
            <mxPoint x="302.5" y="280" as="targetPoint" />
          </mxGeometry>
        </mxCell>
        <mxCell id="EqNFciiGR3iNWJNoW9cR-44" value="" style="shape=image;verticalLabelPosition=bottom;labelBackgroundColor=default;verticalAlign=top;imageAspect=0;image=https://www.jeremyjordan.me/content/images/2017/07/Screen-Shot-2017-07-26-at-1.44.58-PM.png;imageBorder=#44ff00;" vertex="1" parent="1">
          <mxGeometry x="341" y="140.7" width="130" height="60" as="geometry" />
        </mxCell>
        <mxCell id="EqNFciiGR3iNWJNoW9cR-45" value="" style="shape=image;verticalLabelPosition=bottom;labelBackgroundColor=default;verticalAlign=top;imageAspect=0;image=https://www.jeremyjordan.me/content/images/2017/07/Screen-Shot-2017-07-26-at-1.44.58-PM.png;imageBorder=#44ff00;" vertex="1" parent="1">
          <mxGeometry x="341" y="220" width="130" height="60" as="geometry" />
        </mxCell>
        <mxCell id="EqNFciiGR3iNWJNoW9cR-46" value="" style="shape=image;verticalLabelPosition=bottom;labelBackgroundColor=default;verticalAlign=top;imageAspect=0;image=https://www.jeremyjordan.me/content/images/2017/07/Screen-Shot-2017-07-26-at-1.44.58-PM.png;imageBorder=#44ff00;" vertex="1" parent="1">
          <mxGeometry x="341" y="347.7" width="130" height="60" as="geometry" />
        </mxCell>
        <mxCell id="EqNFciiGR3iNWJNoW9cR-51" value="" style="endArrow=none;dashed=1;html=1;rounded=0;" edge="1" parent="1">
          <mxGeometry width="50" height="50" relative="1" as="geometry">
            <mxPoint x="406.5" y="340.7" as="sourcePoint" />
            <mxPoint x="406.5" y="280.7" as="targetPoint" />
          </mxGeometry>
        </mxCell>
        <mxCell id="EqNFciiGR3iNWJNoW9cR-52" value="" style="rounded=1;whiteSpace=wrap;html=1;" vertex="1" parent="1">
          <mxGeometry x="542" y="20" width="160" height="410" as="geometry" />
        </mxCell>
      </root>
    </mxGraphModel>
  </diagram>
</mxfile>
